<svg width="32" height="32" viewBox="0 0 32 32" fill="none" xmlns="http://www.w3.org/2000/svg">
<rect width="32" height="32" fill="white"/>
<path d="M7.915 9.843C7.611 9.843 7.347 9.90433 7.123 10.027C6.90433 10.1497 6.72567 10.315 6.587 10.523C6.44833 10.7257 6.34433 10.9577 6.275 11.219C6.211 11.4803 6.179 11.747 6.179 12.019C6.179 12.291 6.211 12.5577 6.275 12.819C6.34433 13.0803 6.44833 13.315 6.587 13.523C6.72567 13.7257 6.90433 13.8883 7.123 14.011C7.347 14.1337 7.611 14.195 7.915 14.195C8.219 14.195 8.48033 14.1337 8.699 14.011C8.923 13.8883 9.10433 13.7257 9.243 13.523C9.38167 13.315 9.483 13.0803 9.547 12.819C9.61633 12.5577 9.651 12.291 9.651 12.019C9.651 11.747 9.61633 11.4803 9.547 11.219C9.483 10.9577 9.38167 10.7257 9.243 10.523C9.10433 10.315 8.923 10.1497 8.699 10.027C8.48033 9.90433 8.219 9.843 7.915 9.843ZM7.915 9.027C8.34167 9.027 8.723 9.107 9.059 9.267C9.40033 9.427 9.68833 9.643 9.923 9.915C10.1577 10.187 10.3363 10.5043 10.459 10.867C10.587 11.2297 10.651 11.6137 10.651 12.019C10.651 12.4297 10.587 12.8163 10.459 13.179C10.3363 13.5417 10.1577 13.859 9.923 14.131C9.68833 14.403 9.40033 14.619 9.059 14.779C8.723 14.9337 8.34167 15.011 7.915 15.011C7.48833 15.011 7.10433 14.9337 6.763 14.779C6.427 14.619 6.14167 14.403 5.907 14.131C5.67233 13.859 5.491 13.5417 5.363 13.179C5.24033 12.8163 5.179 12.4297 5.179 12.019C5.179 11.6137 5.24033 11.2297 5.363 10.867C5.491 10.5043 5.67233 10.187 5.907 9.915C6.14167 9.643 6.427 9.427 6.763 9.267C7.10433 9.107 7.48833 9.027 7.915 9.027ZM11.9211 9.163H12.9771L15.5851 13.371H15.6011V9.163H16.5531V14.875H15.4971L12.8971 10.675H12.8731V14.875H11.9211V9.163ZM18.1346 9.163H22.2466V10.027H19.1346V11.523H22.0146V12.339H19.1346V14.011H22.3026V14.875H18.1346V9.163Z" fill="black"/>
<path d="M4.939 17.663H9.563V18.527H7.747V23.375H6.747V18.527H4.939V17.663ZM10.4972 17.663H11.4092V19.783H11.4252C11.5372 19.5963 11.7025 19.4417 11.9212 19.319C12.1452 19.191 12.3932 19.127 12.6652 19.127C13.1185 19.127 13.4759 19.2443 13.7372 19.479C13.9985 19.7137 14.1292 20.0657 14.1292 20.535V23.375H13.2172V20.775C13.2065 20.4497 13.1372 20.215 13.0092 20.071C12.8812 19.9217 12.6812 19.847 12.4092 19.847C12.2545 19.847 12.1159 19.8763 11.9932 19.935C11.8705 19.9883 11.7665 20.0657 11.6812 20.167C11.5959 20.263 11.5292 20.3777 11.4812 20.511C11.4332 20.6443 11.4092 20.7857 11.4092 20.935V23.375H10.4972V17.663ZM15.5149 17.663H16.4269V18.527H15.5149V17.663ZM15.5149 19.239H16.4269V23.375H15.5149V19.239ZM17.8206 19.239H18.6846V19.847L18.7006 19.863C18.8393 19.6337 19.0206 19.455 19.2446 19.327C19.4686 19.1937 19.7166 19.127 19.9886 19.127C20.442 19.127 20.7993 19.2443 21.0606 19.479C21.322 19.7137 21.4526 20.0657 21.4526 20.535V23.375H20.5406V20.775C20.53 20.4497 20.4606 20.215 20.3326 20.071C20.2046 19.9217 20.0046 19.847 19.7326 19.847C19.578 19.847 19.4393 19.8763 19.3166 19.935C19.194 19.9883 19.09 20.0657 19.0046 20.167C18.9193 20.263 18.8526 20.3777 18.8046 20.511C18.7566 20.6443 18.7326 20.7857 18.7326 20.935V23.375H17.8206V19.239ZM26.6384 23.159C26.6384 23.783 26.4624 24.247 26.1104 24.551C25.7637 24.8603 25.2624 25.015 24.6064 25.015C24.3984 25.015 24.1877 24.9937 23.9744 24.951C23.7664 24.9083 23.5744 24.8363 23.3984 24.735C23.2277 24.6337 23.0837 24.5003 22.9664 24.335C22.849 24.1697 22.7797 23.967 22.7584 23.727H23.6704C23.697 23.855 23.7424 23.959 23.8064 24.039C23.8704 24.119 23.945 24.1803 24.0304 24.223C24.121 24.271 24.2197 24.3003 24.3264 24.311C24.433 24.327 24.545 24.335 24.6624 24.335C25.0304 24.335 25.2997 24.2443 25.4704 24.063C25.641 23.8817 25.7264 23.6203 25.7264 23.279V22.647H25.7104C25.5824 22.8763 25.4064 23.055 25.1824 23.183C24.9637 23.311 24.7264 23.375 24.4704 23.375C24.1397 23.375 23.857 23.319 23.6224 23.207C23.393 23.0897 23.201 22.9323 23.0464 22.735C22.897 22.5323 22.7877 22.3003 22.7184 22.039C22.649 21.7777 22.6144 21.4977 22.6144 21.199C22.6144 20.9217 22.657 20.6577 22.7424 20.407C22.8277 20.1563 22.9504 19.9377 23.1104 19.751C23.2704 19.559 23.465 19.407 23.6944 19.295C23.929 19.183 24.193 19.127 24.4864 19.127C24.7477 19.127 24.9877 19.183 25.2064 19.295C25.425 19.4017 25.593 19.5723 25.7104 19.807H25.7264V19.239H26.6384V23.159ZM24.6144 22.655C24.817 22.655 24.9877 22.615 25.1264 22.535C25.2704 22.4497 25.385 22.3403 25.4704 22.207C25.561 22.0683 25.625 21.9137 25.6624 21.743C25.705 21.567 25.7264 21.391 25.7264 21.215C25.7264 21.039 25.705 20.8683 25.6624 20.703C25.6197 20.5377 25.553 20.391 25.4624 20.263C25.377 20.135 25.2624 20.0337 25.1184 19.959C24.9797 19.8843 24.8117 19.847 24.6144 19.847C24.4117 19.847 24.241 19.8897 24.1024 19.975C23.9637 20.0603 23.8517 20.1723 23.7664 20.311C23.681 20.4443 23.6197 20.599 23.5824 20.775C23.545 20.9457 23.5264 21.1163 23.5264 21.287C23.5264 21.4577 23.5477 21.6257 23.5904 21.791C23.633 21.951 23.697 22.095 23.7824 22.223C23.873 22.351 23.985 22.455 24.1184 22.535C24.257 22.615 24.4224 22.655 24.6144 22.655Z" fill="black"/>
</svg>
